<svg width="30" height="23" viewBox="0 0 30 23" fill="none" xmlns="http://www.w3.org/2000/svg">
<path fill-rule="evenodd" clip-rule="evenodd" d="M2.8125 1.23214C2.8125 0.905358 2.66434 0.591958 2.40062 0.360886C2.1369 0.129815 1.77921 0 1.40625 0C1.03329 0 0.675604 0.129815 0.411881 0.360886C0.148158 0.591958 0 0.905358 0 1.23214L0 21.7679C0 22.448 0.63 23 1.40625 23H28.5938C28.9667 23 29.3244 22.8702 29.5881 22.6391C29.8518 22.408 30 22.0946 30 21.7679C30 21.4411 29.8518 21.1277 29.5881 20.8966C29.3244 20.6655 28.9667 20.5357 28.5938 20.5357H2.8125V1.23214ZM29.5875 5.38857C29.8359 5.155 29.9711 4.84606 29.9647 4.52686C29.9583 4.20765 29.8107 3.90309 29.553 3.67734C29.2954 3.45159 28.9478 3.32227 28.5835 3.31664C28.2192 3.31101 27.8666 3.4295 27.6 3.64714L18.75 11.4014L14.1188 7.34357C13.8551 7.11283 13.4977 6.98323 13.125 6.98323C12.7523 6.98323 12.3949 7.11283 12.1312 7.34357L6.0375 12.6829C5.7891 12.9164 5.65387 13.2254 5.6603 13.5446C5.66672 13.8638 5.81431 14.1683 6.07196 14.3941C6.32961 14.6198 6.67721 14.7492 7.04152 14.7548C7.40583 14.7604 7.75842 14.6419 8.025 14.4243L13.125 9.95571L17.7563 14.0136C18.0199 14.2443 18.3773 14.3739 18.75 14.3739C19.1227 14.3739 19.4801 14.2443 19.7437 14.0136L29.5875 5.38857V5.38857Z" fill="#EAF3FD"/>
</svg>
