<svg width="30" height="23" viewBox="0 0 30 23" fill="none" xmlns="http://www.w3.org/2000/svg">
<path d="M14.999 17.25H5.99817V10.0625H2.99788V21.5625C2.99788 22.3576 3.66826 23 4.49803 23H16.4992C17.3289 23 17.9993 22.3576 17.9993 21.5625V10.0625H14.999V17.25ZM29.7473 6.38789L25.7485 0.637891C25.4672 0.238086 24.9984 0 24.4968 0H5.50125C4.99964 0 4.53084 0.238086 4.25425 0.637891L0.255437 6.38789C-0.410251 7.34473 0.302316 8.625 1.50243 8.625H28.5003C29.6957 8.625 30.4083 7.34473 29.7473 6.38789ZM23.9999 22.2812C23.9999 22.6766 24.3374 23 24.7499 23H26.2501C26.6626 23 27.0002 22.6766 27.0002 22.2812V10.0625H23.9999V22.2812Z" fill="#EAF3FD"/>
</svg>
