<svg width="30" height="23" viewBox="0 0 30 23" fill="none" xmlns="http://www.w3.org/2000/svg">
<path d="M4.5 9.85714C6.15469 9.85714 7.5 8.38371 7.5 6.57143C7.5 4.75915 6.15469 3.28571 4.5 3.28571C2.84531 3.28571 1.5 4.75915 1.5 6.57143C1.5 8.38371 2.84531 9.85714 4.5 9.85714ZM25.5 9.85714C27.1547 9.85714 28.5 8.38371 28.5 6.57143C28.5 4.75915 27.1547 3.28571 25.5 3.28571C23.8453 3.28571 22.5 4.75915 22.5 6.57143C22.5 8.38371 23.8453 9.85714 25.5 9.85714ZM27 11.5H24C23.175 11.5 22.4297 11.8645 21.8859 12.4549C23.775 13.5895 25.1156 15.6379 25.4062 18.0714H28.5C29.3297 18.0714 30 17.3373 30 16.4286V14.7857C30 12.9734 28.6547 11.5 27 11.5ZM15 11.5C17.9016 11.5 20.25 8.9279 20.25 5.75C20.25 2.5721 17.9016 0 15 0C12.0984 0 9.75 2.5721 9.75 5.75C9.75 8.9279 12.0984 11.5 15 11.5ZM18.6 13.1429H18.2109C17.2359 13.6563 16.1531 13.9643 15 13.9643C13.8469 13.9643 12.7687 13.6563 11.7891 13.1429H11.4C8.41875 13.1429 6 15.792 6 19.0571V20.5357C6 21.8962 7.00781 23 8.25 23H21.75C22.9922 23 24 21.8962 24 20.5357V19.0571C24 15.792 21.5812 13.1429 18.6 13.1429ZM8.11406 12.4549C7.57031 11.8645 6.825 11.5 6 11.5H3C1.34531 11.5 0 12.9734 0 14.7857V16.4286C0 17.3373 0.670312 18.0714 1.5 18.0714H4.58906C4.88438 15.6379 6.225 13.5895 8.11406 12.4549Z" fill="#EAF3FD"/>
</svg>
