<svg width="30" height="23" viewBox="0 0 30 23" fill="none" xmlns="http://www.w3.org/2000/svg">
<path d="M23.341 10.1497L13.409 0.631556C12.9871 0.227181 12.4148 2.99034e-06 11.818 0H2.25C1.00734 0 0 0.965371 0 2.15625V11.3256C3.12036e-06 11.8975 0.237058 12.4459 0.659016 12.8503L10.591 22.3684C11.4696 23.2105 12.8942 23.2105 13.773 22.3684L23.341 13.1991C24.2197 12.357 24.2197 10.9918 23.341 10.1497V10.1497ZM5.25 7.1875C4.00735 7.1875 3 6.22213 3 5.03125C3 3.84037 4.00735 2.875 5.25 2.875C6.49266 2.875 7.5 3.84037 7.5 5.03125C7.5 6.22213 6.49266 7.1875 5.25 7.1875ZM29.341 13.1991L19.773 22.3684C18.8943 23.2105 17.4697 23.2105 16.591 22.3684L16.5741 22.3523L24.7331 14.5332C25.53 13.7696 25.9688 12.7543 25.9688 11.6744C25.9688 10.5945 25.5299 9.57918 24.7331 8.81556L15.5342 0H17.818C18.4148 2.99034e-06 18.9871 0.227181 19.409 0.631556L29.341 10.1497C30.2197 10.9918 30.2197 12.357 29.341 13.1991Z" fill="#EAF3FD"/>
</svg>
