<svg width="30" height="23" viewBox="0 0 30 23" fill="none" xmlns="http://www.w3.org/2000/svg">
<path d="M8.74998 9.44643V13.5536C8.74998 14.2341 8.12039 14.7857 7.34373 14.7857H1.40625C0.62959 14.7857 0 14.2341 0 13.5536V9.44643C0 8.76593 0.62959 8.21429 1.40625 8.21429H7.34373C8.12039 8.21429 8.74998 8.76593 8.74998 9.44643ZM0 17.6607V21.7679C0 22.4484 0.62959 23 1.40625 23H7.34373C8.12039 23 8.74998 22.4484 8.74998 21.7679V17.6607C8.74998 16.9802 8.12039 16.4286 7.34373 16.4286H1.40625C0.62959 16.4286 0 16.9802 0 17.6607ZM7.34373 0H1.40625C0.62959 0 0 0.551641 0 1.23214V5.33929C0 6.01979 0.62959 6.57143 1.40625 6.57143H7.34373C8.12039 6.57143 8.74998 6.01979 8.74998 5.33929V1.23214C8.74998 0.551641 8.12039 0 7.34373 0ZM12.0312 23H28.5938C29.3704 23 30 22.4484 30 21.7679V17.6607C30 16.9802 29.3704 16.4286 28.5938 16.4286H12.0312C11.2546 16.4286 10.625 16.9802 10.625 17.6607V21.7679C10.625 22.4484 11.2546 23 12.0312 23ZM10.625 1.23214V5.33929C10.625 6.01979 11.2546 6.57143 12.0312 6.57143H28.5938C29.3704 6.57143 30 6.01979 30 5.33929V1.23214C30 0.551641 29.3704 0 28.5938 0H12.0312C11.2546 0 10.625 0.551641 10.625 1.23214ZM12.0312 14.7857H28.5938C29.3704 14.7857 30 14.2341 30 13.5536V9.44643C30 8.76593 29.3704 8.21429 28.5938 8.21429H12.0312C11.2546 8.21429 10.625 8.76593 10.625 9.44643V13.5536C10.625 14.2341 11.2546 14.7857 12.0312 14.7857Z" fill="#EAF3FD"/>
</svg>
