<svg width="32" height="31" viewBox="0 0 47 46" fill="none" xmlns="http://www.w3.org/2000/svg">
<path d="M46.7128 12.4042C46.4206 11.9869 46.0285 11.7782 45.5364 11.7782H14.2099L11.8109 3.57056C11.5956 2.82863 11.3034 2.19489 10.9343 1.66935C10.5652 1.14382 10.173 0.772849 9.75779 0.556452C9.34257 0.340054 8.98117 0.193212 8.67359 0.115927C8.36602 0.0386425 8.05845 0 7.75087 0H1.43022C1.03037 0 0.692042 0.139113 0.415225 0.417339C0.138408 0.695565 0 1.05108 0 1.48387C0 1.73118 0.0615149 1.97077 0.184545 2.20262C0.307574 2.43448 0.484429 2.61223 0.71511 2.73589C0.945791 2.85954 1.18416 2.92137 1.43022 2.92137H7.75087C7.8739 2.92137 7.98924 2.93683 8.09689 2.96774C8.20454 2.99866 8.35064 3.13004 8.53519 3.3619C8.71973 3.59375 8.87352 3.94153 8.99655 4.40524L17.1626 34.5464C17.2242 34.7319 17.3241 34.9096 17.4625 35.0796C17.6009 35.2497 17.7624 35.381 17.947 35.4738C18.1315 35.5665 18.3314 35.6129 18.5467 35.6129H38.4775C38.7851 35.6129 39.0696 35.5202 39.3311 35.3347C39.5925 35.1492 39.7694 34.9173 39.8616 34.6391L46.9205 13.7722C47.0742 13.2776 47.005 12.8216 46.7128 12.4042ZM37.4625 32.6452H19.7001L14.9942 14.746H43.4141L37.4625 32.6452ZM34.556 38.5806C33.541 38.5806 32.6721 38.9439 31.9493 39.6704C31.2265 40.3968 30.8651 41.2702 30.8651 42.2903C30.8651 43.3105 31.2265 44.1838 31.9493 44.9103C32.6721 45.6368 33.541 46 34.556 46C35.571 46 36.4399 45.6368 37.1627 44.9103C37.8855 44.1838 38.2469 43.3105 38.2469 42.2903C38.2469 41.2702 37.8855 40.3968 37.1627 39.6704C36.4399 38.9439 35.571 38.5806 34.556 38.5806ZM21.2688 38.5806C20.5921 38.5806 19.9693 38.7507 19.4002 39.0907C18.8312 39.4308 18.3853 39.879 18.0623 40.4355C17.7393 40.9919 17.5779 41.6102 17.5779 42.2903C17.5779 43.3105 17.9393 44.1838 18.6621 44.9103C19.3849 45.6368 20.2538 46 21.2688 46C22.2838 46 23.1527 45.6368 23.8755 44.9103C24.5983 44.1838 24.9597 43.3105 24.9597 42.2903C24.9597 42.043 24.9366 41.7957 24.8904 41.5484C24.8443 41.3011 24.7751 41.0692 24.6828 40.8528C24.5906 40.6364 24.4752 40.4278 24.3368 40.2268C24.1984 40.0259 24.0446 39.8404 23.8755 39.6704C23.7063 39.5003 23.5217 39.3458 23.3218 39.2067C23.1219 39.0675 22.9143 38.9516 22.699 38.8589C22.4837 38.7661 22.253 38.6966 22.0069 38.6502C21.7609 38.6038 21.5148 38.5806 21.2688 38.5806Z" fill="#EAF3FD"/>
</svg>
