<svg width="30" height="27" viewBox="0 0 30 27" fill="none" xmlns="http://www.w3.org/2000/svg">
<path d="M29.752 13.0914C29.752 20.3215 23.0918 26.1827 14.876 26.1827C6.6602 26.1827 0 20.3215 0 13.0914C0 5.8612 6.6602 0 14.876 0C23.0918 0 29.752 5.8612 29.752 13.0914Z" fill="#2637AC"/>
<g clip-path="url(#clip0)">
<path d="M18.1196 7.50919C18.5306 7.14752 19.088 6.94434 19.6692 6.94434C20.2504 6.94434 20.8078 7.14752 21.2188 7.50919C21.6298 7.87086 21.8607 8.3614 21.8607 8.87288C21.8607 9.38436 21.6298 9.87489 21.2188 10.2366L11.4047 18.8732L7.27246 19.7824L8.30552 16.1459L18.1196 7.50919Z" stroke="white" stroke-linecap="round" stroke-linejoin="round"/>
</g>
<defs>
<clipPath id="clip0">
<rect width="17.8513" height="15.7097" fill="white" transform="translate(5.9502 5.23633)"/>
</clipPath>
</defs>
</svg>
