<svg width="29" height="30" viewBox="0 0 29 30" fill="none" xmlns="http://www.w3.org/2000/svg">
<path d="M28.3369 15C28.3369 23.2843 22.0363 30 14.2641 30C6.49198 30 0.191406 23.2843 0.191406 15C0.191406 6.71573 6.49198 0 14.2641 0C22.0363 0 28.3369 6.71573 28.3369 15Z" fill="#2637AC"/>
<path d="M17.3327 8.60424C17.7214 8.18984 18.2487 7.95703 18.7986 7.95703C19.3484 7.95703 19.8757 8.18984 20.2645 8.60424C20.6533 9.01864 20.8717 9.58069 20.8717 10.1667C20.8717 10.7528 20.6533 11.3148 20.2645 11.7292L10.9804 21.6251L7.07129 22.6667L8.04856 18.5001L17.3327 8.60424Z" stroke="white" stroke-width="2" stroke-linecap="round" stroke-linejoin="round"/>
</svg>
