<svg width="24" height="21" viewBox="0 0 24 21" fill="none" xmlns="http://www.w3.org/2000/svg">
<path d="M11.8567 0.944897V8.68598L11.8572 9.32206L20.5605 9.3208L18.546 7.14963C18.2347 6.8142 18.2064 6.28937 18.4612 5.91959L18.5463 5.81366C18.8577 5.47834 19.3449 5.44793 19.6883 5.7224L19.7867 5.81389L23.2914 9.58959C23.6025 9.92477 23.631 10.449 23.3767 10.8188L23.292 10.9247L19.7873 14.7077C19.4452 15.0772 18.8898 15.0778 18.5468 14.7092C18.235 14.3743 18.2062 13.8495 18.4605 13.4794L18.5454 13.3733L20.5488 11.2102L11.8572 11.2114L11.8567 19.7072C11.8567 20.2947 11.364 20.7397 10.827 20.6375L0.885729 18.7465C0.466632 18.6668 0.161133 18.2746 0.161133 17.8162V2.70305C0.161133 2.2404 0.472245 1.84583 0.896161 1.77086L10.8374 0.0127153C11.3714 -0.0817397 11.8567 0.362057 11.8567 0.944897ZM10.1023 2.05736L1.91546 3.50525V17.0238L10.1023 18.581V2.05736Z" fill="#323B49"/>
</svg>
