<svg width="40" height="40" viewBox="0 0 40 40" fill="none" xmlns="http://www.w3.org/2000/svg">
<path d="M26.4562 31.5437C26.4562 33.125 25.1875 34.3937 23.6063 34.3937C22.025 34.3937 20.7437 33.125 20.7437 31.5437C20.7437 29.9625 22.0312 28.6812 23.6063 28.6812C25.1938 28.6812 26.4562 29.9625 26.4562 31.5437ZM10.5875 28.6812C9.00625 28.6812 7.7375 29.9687 7.7375 31.5437C7.7375 33.1187 9.00625 34.3937 10.5875 34.3937C12.1687 34.3937 13.45 33.125 13.45 31.5437C13.45 29.9625 12.1687 28.6812 10.5875 28.6812ZM28.8188 11.8062C9.93125 11.8062 5.11875 11.0062 0 5.6062C2.15 8.83745 3.33125 14.9125 23.3188 14.6187C44.15 14.3062 31.4438 20 27.7437 26.425C39.4125 16.0062 47.7063 11.8062 28.8188 11.8062Z" fill="white"/>
</svg>
