<svg width="166" height="33" viewBox="0 0 166 33" fill="none" xmlns="http://www.w3.org/2000/svg">
<path d="M40.152 0.0719976C42.744 0.0719976 45.032 0.487998 47.016 1.32C49 2.12 50.536 3.304 51.624 4.872C52.744 6.44 53.304 8.296 53.304 10.44C53.304 12.52 52.744 14.344 51.624 15.912C50.536 17.448 49 18.648 47.016 19.512C45.032 20.344 42.744 20.76 40.152 20.76H15.768V29.016H26.952V33H0.216V29.016H10.824V4.056H0.216V0.0719976H40.152ZM40.152 16.872C42.552 16.872 44.504 16.296 46.008 15.144C47.512 13.992 48.264 12.456 48.264 10.536C48.264 8.52 47.528 6.936 46.056 5.784C44.584 4.632 42.616 4.056 40.152 4.056H15.768V16.872H40.152ZM106.412 19.848V33H59.3723V29.016H69.9803V4.056H59.3723V0.0719976H85.3883V4.056H74.8763V29.016H101.948V19.848H106.412ZM152.652 0.0719976C155.244 0.0719976 157.532 0.487998 159.516 1.32C161.5 2.12 163.036 3.304 164.124 4.872C165.244 6.44 165.804 8.296 165.804 10.44C165.804 12.52 165.244 14.344 164.124 15.912C163.036 17.448 161.5 18.648 159.516 19.512C157.532 20.344 155.244 20.76 152.652 20.76H128.268V29.016H139.452V33H112.716V29.016H123.324V4.056H112.716V0.0719976H152.652ZM152.652 16.872C155.052 16.872 157.004 16.296 158.508 15.144C160.012 13.992 160.764 12.456 160.764 10.536C160.764 8.52 160.028 6.936 158.556 5.784C157.084 4.632 155.116 4.056 152.652 4.056H128.268V16.872H152.652Z" fill="#EAF3FD"/>
</svg>
