<svg width="30" height="30" viewBox="0 0 30 30" fill="none" xmlns="http://www.w3.org/2000/svg">
<path d="M27.1875 9.375H2.8125C2.56386 9.375 2.3254 9.47377 2.14959 9.64959C1.97377 9.8254 1.875 10.0639 1.875 10.3125L1.875 12.1875C1.875 12.4361 1.97377 12.6746 2.14959 12.8504C2.3254 13.0262 2.56386 13.125 2.8125 13.125H27.1875C27.4361 13.125 27.6746 13.0262 27.8504 12.8504C28.0262 12.6746 28.125 12.4361 28.125 12.1875V10.3125C28.125 10.0639 28.0262 9.8254 27.8504 9.64959C27.6746 9.47377 27.4361 9.375 27.1875 9.375ZM27.1875 24.375H2.8125C2.56386 24.375 2.3254 24.4738 2.14959 24.6496C1.97377 24.8254 1.875 25.0639 1.875 25.3125L1.875 27.1875C1.875 27.4361 1.97377 27.6746 2.14959 27.8504C2.3254 28.0262 2.56386 28.125 2.8125 28.125H27.1875C27.4361 28.125 27.6746 28.0262 27.8504 27.8504C28.0262 27.6746 28.125 27.4361 28.125 27.1875V25.3125C28.125 25.0639 28.0262 24.8254 27.8504 24.6496C27.6746 24.4738 27.4361 24.375 27.1875 24.375ZM8.20898 5.625H21.7916C21.8847 5.625 21.9768 5.60666 22.0628 5.57102C22.1488 5.53538 22.2269 5.48315 22.2927 5.41731C22.3585 5.35146 22.4107 5.2733 22.4462 5.18729C22.4818 5.10127 22.5001 5.00909 22.5 4.91602V2.5834C22.5 2.49037 22.4817 2.39825 22.4461 2.31231C22.4105 2.22636 22.3583 2.14827 22.2925 2.08249C22.2267 2.0167 22.1486 1.96452 22.0627 1.92892C21.9767 1.89332 21.8846 1.875 21.7916 1.875H8.20898C8.11591 1.87492 8.02373 1.89319 7.93771 1.92876C7.8517 1.96432 7.77354 2.01649 7.70769 2.08228C7.64185 2.14807 7.58962 2.22619 7.55398 2.31217C7.51834 2.39816 7.5 2.49032 7.5 2.5834V4.91602C7.5 5.10405 7.5747 5.28438 7.70766 5.41734C7.84062 5.5503 8.02095 5.625 8.20898 5.625ZM21.7916 20.625C21.8847 20.625 21.9768 20.6067 22.0628 20.571C22.1488 20.5354 22.2269 20.4832 22.2927 20.4173C22.3585 20.3515 22.4107 20.2733 22.4462 20.1873C22.4818 20.1013 22.5001 20.0091 22.5 19.916V17.5834C22.5 17.3955 22.4254 17.2153 22.2925 17.0825C22.1597 16.9496 21.9795 16.875 21.7916 16.875H8.20898C8.11591 16.8749 8.02373 16.8932 7.93771 16.9288C7.8517 16.9643 7.77354 17.0165 7.70769 17.0823C7.64185 17.1481 7.58962 17.2262 7.55398 17.3122C7.51834 17.3982 7.5 17.4903 7.5 17.5834V19.916C7.5 20.0091 7.51834 20.1013 7.55397 20.1873C7.5896 20.2733 7.64182 20.3515 7.70766 20.4173C7.77349 20.4832 7.85165 20.5354 7.93767 20.571C8.02369 20.6067 8.11588 20.625 8.20898 20.625H21.7916Z" fill="#EAF3FD"/>
</svg>
