<svg width="30" height="30" viewBox="0 0 30 30" fill="none" xmlns="http://www.w3.org/2000/svg">
<path d="M14.9725 2.43876e-05C10.9643 0.00722196 7.32502 1.5867 4.63821 4.15436L2.47808 1.99424C1.56357 1.07972 0 1.72738 0 3.02065V11.129C0 11.9308 0.649899 12.5807 1.45161 12.5807H9.56002C10.8533 12.5807 11.5009 11.0171 10.5865 10.1026L8.06129 7.57738C9.92806 5.82946 12.3436 4.86123 14.9099 4.83909C20.4985 4.79083 25.2093 9.3135 25.1609 15.0876C25.1151 20.5651 20.6744 25.1613 15 25.1613C12.5125 25.1613 10.1615 24.2735 8.30867 22.6478C8.02179 22.3962 7.58855 22.4115 7.31867 22.6813L4.91976 25.0802C4.62508 25.3749 4.63966 25.8553 4.94891 26.1346C7.60875 28.5371 11.1335 30 15 30C23.2842 30 29.9999 23.2843 30 15.0001C30.0001 6.7254 23.2472 -0.0147941 14.9725 2.43876e-05Z" fill="#EAF3FD"/>
</svg>
